<svg xmlns="http://www.w3.org/2000/svg" xmlns:xlink="http://www.w3.org/1999/xlink" fill="none" version="1.1" width="40" height="40" viewBox="0 0 40 40"><defs><clipPath id="master_svg0_97_754"><rect x="0" y="0" width="40" height="40" rx="0"/></clipPath></defs><g clip-path="url(#master_svg0_97_754)"><g><path d="M36.15780625,25.6558875C35.41440625,25.6558875,34.81170625,26.2585875,34.81170625,27.0019875L34.81170625,31.2905875L28.63830625,25.1171875L32.92690625,25.1171875C33.670306249999996,25.1171875,34.27300625,24.5144875,34.27300625,23.7710875C34.27300625,23.0276875,33.670306249999996,22.4249875,32.92690625,22.4249875L25.38870625,22.4249875C25.38440625,22.4249875,25.38010625,22.4261875,25.37540625,22.4261875C25.29140625,22.4269875,25.20780625,22.4351875,25.12540625,22.4515875C25.08440625,22.4597875,25.04690625,22.4745875,25.00740625,22.4862875C24.96250625,22.4995875,24.91720625,22.5097875,24.87380625,22.5276875C24.82850625,22.5464875,24.78790625,22.5718875,24.74530625,22.5952875C24.71090625,22.6140875,24.67540625,22.6292875,24.64220625,22.6511875C24.49440625,22.7496875,24.36770625,22.8764875,24.26910625,23.0241875C24.24730625,23.0569875,24.23240625,23.0921875,24.21370625,23.1265875C24.19020625,23.1691875,24.16440625,23.2105875,24.14570625,23.2558875C24.12730625,23.2999875,24.11680625,23.3460875,24.10350625,23.3917875C24.09220625,23.4304875,24.07730625,23.4671875,24.06910625,23.5069875C24.05190625,23.5941875,24.04260625,23.6823875,24.04260625,23.7706875L24.04260625,31.3093875C24.04260625,32.052687500000005,24.64530625,32.6554875,25.38870625,32.6554875C26.13200625,32.6554875,26.73480625,32.052687500000005,26.73480625,31.3093875L26.73480625,27.0210875L32.90820625,33.1944875L28.61910625,33.1944875C27.87580625,33.1944875,27.27300625,33.797287499999996,27.27300625,34.5405875C27.27300625,35.283987499999995,27.87580625,35.8866875,28.61910625,35.8866875L36.15740625,35.8866875C36.24570625,35.8866875,36.33400625,35.8773875,36.42110625,35.860187499999995C36.46090625,35.8523875,36.49840625,35.837087499999996,36.53670625,35.825787500000004C36.58200625,35.8124875,36.62810625,35.801987499999996,36.67230625,35.783587499999996C36.71760625,35.7648875,36.75860625,35.7390875,36.80120625,35.7159875C36.83550625,35.6972875,36.87110625,35.681987500000005,36.90430625,35.6601875C37.05190625,35.5614875,37.17870625,35.4347875,37.27730625,35.2870875C37.29920625,35.254287500000004,37.31410625,35.219187500000004,37.33280625,35.1847875C37.35620625,35.1421875,37.38200625,35.100787499999996,37.40080625,35.0554875C37.41910625,35.0112875,37.42970625,34.9651875,37.44300625,34.9194875C37.45430625,34.8808875,37.46910625,34.844187500000004,37.47730625,34.8042875C37.49450625,34.7171875,37.50390625,34.628887500000005,37.50390625,34.5405875L37.50390625,27.0019875C37.50390625,26.2585875,36.90120625,25.6558875,36.15780625,25.6558875ZM36.15780625,4.1171875L3.8499962500000002,4.1171875C3.10664025,4.1171875,2.50390625,4.7199215,2.50390625,5.4632775L2.50390625,34.5401875C2.50390625,35.283587499999996,3.10664025,35.8862875,3.8499962500000002,35.8862875L22.15780625,35.8862875C22.90120625,35.8862875,23.50390625,35.283587499999996,23.50390625,34.5401875C23.50390625,33.7968875,22.90120625,33.1941875,22.15780625,33.1941875L5.19609625,33.1941875L5.19609625,13.2710975L34.81130625,13.2710975L34.81130625,20.3745875C34.81130625,21.1179875,35.41410625,21.7206875,36.15740625,21.7206875C36.90080625,21.7206875,37.50350625,21.1179875,37.50350625,20.3745875L37.50350625,5.4632775C37.50390625,4.7199215,36.90120625,4.1171875,36.15780625,4.1171875ZM5.19609625,10.5789075L5.19609625,6.8093775L34.81130625,6.8093775L34.81130625,10.5785175L5.19609625,10.5785175L5.19609625,10.5789075ZM6.54218625,8.6941375C6.54218625,9.2889275,7.02435625,9.7710975,7.61913625,9.7710975C8.21392625,9.7710975,8.69609625,9.2889275,8.69609625,8.6941375C8.69609625,8.0993575,8.21392625,7.6171875,7.61913625,7.6171875C7.02435625,7.6171875,6.54218625,8.0993575,6.54218625,8.6941375ZM9.84023625,8.6941375C9.84023625,9.2889275,10.32240625,9.7710975,10.91718625,9.7710975C11.51197625,9.7710975,11.99413625,9.2889275,11.99413625,8.6941375C11.99413625,8.0993575,11.51197625,7.6171875,10.91718625,7.6171875C10.32240625,7.6171875,9.84023625,8.0993575,9.84023625,8.6941375ZM13.13830625,8.6941375C13.13830625,9.2889275,13.62040625,9.7710975,14.21520625,9.7710975C14.81000625,9.7710975,15.29220625,9.2889275,15.29220625,8.6941375C15.29220625,8.0993575,14.81000625,7.6171875,14.21520625,7.6171875C13.62040625,7.6171875,13.13830625,8.0993575,13.13830625,8.6941375Z" fill="#FFD96D" fill-opacity="1" style="mix-blend-mode:passthrough"/></g></g></svg>