<svg xmlns="http://www.w3.org/2000/svg" xmlns:xlink="http://www.w3.org/1999/xlink" fill="none" version="1.1" width="40" height="40" viewBox="0 0 40 40"><defs><clipPath id="master_svg0_97_758"><rect x="0" y="0" width="40" height="40" rx="0"/></clipPath></defs><g clip-path="url(#master_svg0_97_758)"><g><path d="M30.0547125,2L9.9453125,2C8.7042925,2,7.6953125,3.00898,7.6953125,4.25L7.6953125,35.75C7.6953125,36.991,8.7042925,38,9.9453125,38L30.0547125,38C31.2957125,38,32.3047125,36.991,32.3047125,35.75L32.3047125,4.25C32.3047125,3.00898,31.2957125,2,30.0547125,2ZM30.0547125,35.75L9.9453125,35.75L9.9453125,30.6172L30.0547125,30.6172L30.0547125,35.75ZM9.9453125,28.3672L9.9453125,4.25L30.0547125,4.25L30.0547125,28.3672L9.9453125,28.3672ZM20.0000125,32.0586C20.621312500000002,32.0586,21.1250125,32.5623,21.1250125,33.1836C21.1250125,33.8049,20.621312500000002,34.3086,20.0000125,34.3086C19.3787125,34.3086,18.8750125,33.8049,18.8750125,33.1836C18.8750125,32.5623,19.3787125,32.0586,20.0000125,32.0586ZM19.5539125,22.0784C20.0386125,22.3582,20.2043125,22.9788,19.9239125,23.4643C19.6436125,23.9499,19.0234125,24.1167,18.5386125,23.8368C18.0539125,23.557,17.888312499999998,22.9365,18.168612500000002,22.4509C18.4489125,21.9653,19.0692125,21.7985,19.5539125,22.0784L19.5539125,22.0784ZM19.425112499999997,12.3073C19.8967125,12.5796,20.0686125,13.1707,19.8229125,13.6465L19.815312499999997,13.6609L19.8157125,13.6611L14.1421225,23.4881L14.141702500000001,23.4878C13.8559825,23.9493,13.2507025,24.1018,12.774302500000001,23.8267C12.3026825,23.5544,12.1308025,22.9633,12.3765425,22.4875L12.3841325,22.4731L12.3837125,22.4729L18.057312500000002,12.6459L18.0577125,12.6461C18.3435125,12.1847,18.9486125,12.0322,19.4250125,12.3073L19.425112499999997,12.3073ZM27.2257125,8.79043C27.6973125,9.062750000000001,27.8692125,9.65394,27.6234125,10.12971L27.6158125,10.14412L27.6162125,10.14433L21.9427125,19.9713L21.9423125,19.9711L21.933612500000002,19.9848C21.644512499999998,20.4355,21.046612500000002,20.5822,20.5749125,20.3099C20.1033125,20.0376,19.9314125,19.4465,20.1771125,18.9707L20.1847125,18.9563L20.1843125,18.9561L25.8579125,9.12912L25.8583125,9.12937L25.8670125,9.11563C26.1561125,8.66489,26.7541125,8.51815,27.2257125,8.79043L27.2257125,8.79043ZM21.4613125,8.780380000000001C21.946012500000002,9.060220000000001,22.1117125,9.68073,21.8313125,10.1663C21.5510125,10.65188,20.930812500000002,10.81866,20.446112499999998,10.53879C19.9614125,10.25894,19.7957125,9.63843,20.076012499999997,9.15286C20.3563125,8.66728,20.9766125,8.500530000000001,21.4613125,8.780380000000001Z" fill="#FFD96D" fill-opacity="1" style="mix-blend-mode:passthrough"/></g></g></svg>