<svg xmlns="http://www.w3.org/2000/svg" xmlns:xlink="http://www.w3.org/1999/xlink" fill="none" version="1.1" width="40" height="40" viewBox="0 0 40 40"><defs><clipPath id="master_svg0_97_765"><rect x="0" y="0" width="40" height="40" rx="0"/></clipPath></defs><g clip-path="url(#master_svg0_97_765)"><g><path d="M27.10614765625,4.328125L34.36884765625,11.704515L34.36884765625,33.065625C34.369247656249996,34.432825,33.315547656250004,35.569024999999996,31.95224765625,35.671625L8.24384765625,35.678125C6.87669765625,35.678525,5.74041565625,34.624825,5.63787905625,33.261525L5.63134765625,6.940625C5.63091538525,5.573475,6.68460765625,4.437193,8.04790765625,4.3346564L27.10614765625,4.328125ZM23.91884765625,6.940625L8.24384765625,6.940625L8.24384765625,33.065625L31.75634765625,33.065625L31.75634765625,14.778125L25.22514765625,14.778125C24.56284765625,14.778025,24.00544765625,14.282395,23.92794765625,13.624705L23.91884765625,6.940625ZM31.15804765625,12.165625L26.53134765625,7.467045000000001L26.53134765625,12.165625L31.15804765625,12.165625ZM15.09120765625,18.495725L16.93954765625,20.342725L13.24416765625,24.036825L16.93954765625,27.732225L15.09251765625,29.579225L9.55009765625,24.036825L15.09251765625,18.495725L15.09120765625,18.495725ZM25.54124765625,29.579225L23.69414765625,27.732225L27.38954765625,24.036825L23.69414765625,20.342725L25.54254765625,18.495725L31.08364765625,24.036825L25.54254765625,29.579225L25.54124765625,29.579225ZM20.74724765625,17.390625L23.27094765625,18.067225L19.88904765625,30.684325L17.36674765625,30.007725L20.744647656250002,17.390625L20.74724765625,17.390625Z" fill="#FFD96D" fill-opacity="1" style="mix-blend-mode:passthrough"/></g></g></svg>