<svg xmlns="http://www.w3.org/2000/svg" xmlns:xlink="http://www.w3.org/1999/xlink" fill="none" version="1.1" width="40" height="40" viewBox="0 0 40 40"><defs><clipPath id="master_svg0_97_769"><rect x="0" y="0" width="40" height="40" rx="0"/></clipPath></defs><g clip-path="url(#master_svg0_97_769)"><g><path d="M13.73825,7.890625L12.41207,12.789335000000001C12.24613,13.402385,11.68985,13.828125,11.05469,13.828125L5.78125,13.828125L5.78125,32.148425L34.21875,32.148425L34.21875,13.828125L28.94535,13.828125C28.30735,13.828125,27.74925,13.398635,27.58595,12.781875L26.29055,7.890625L13.73825,7.890625ZM9.978480000000001,11.015625L11.30465,6.1169150000000005C11.47063,5.503867,12.02695,5.078125,12.66211,5.078125L27.37295,5.078125C28.01095,5.078125,28.56905,5.507617,28.73235,6.124375L30.02765,11.015625L35.62495,11.015625C36.40165,11.015625,37.03125,11.645235,37.03125,12.421875L37.03125,33.554725000000005C37.03125,34.331325,36.40165,34.960925,35.62495,34.960925L4.375,34.960925C3.598359,34.960925,2.96875,34.331325,2.96875,33.554725000000005L2.96875,12.421875C2.96875,11.645235,3.598359,11.015625,4.375,11.015625L9.978480000000001,11.015625L9.978480000000001,11.015625ZM20.00005,30.039025C15.77155,30.039025,12.34375,26.611225,12.34375,22.382825C12.34375,18.154425,15.77155,14.726565,20.00005,14.726565C24.22845,14.726565,27.65625,18.154425,27.65625,22.382825C27.65625,26.611225,24.22845,30.039025,20.00005,30.039025ZM20.00005,27.226525C22.67515,27.226525,24.84375,25.057925,24.84375,22.382825C24.84375,19.707725,22.67515,17.539025000000002,20.00005,17.539025000000002C17.324849999999998,17.539025000000002,15.15625,19.707725,15.15625,22.382825C15.15625,25.057925,17.324849999999998,27.226525,20.00005,27.226525ZM5.54688,9.921875C4.77023,9.921875,4.14063,9.292265,4.14063,8.515625C4.14063,7.738985,4.77023,7.109375,5.54688,7.109375L8.07656,7.109375C8.853200000000001,7.109375,9.48281,7.738985,9.48281,8.515625C9.48281,9.292265,8.853200000000001,9.921875,8.07656,9.921875L5.54688,9.921875Z" fill="#FFD96D" fill-opacity="1" style="mix-blend-mode:passthrough"/></g></g></svg>