<svg xmlns="http://www.w3.org/2000/svg" xmlns:xlink="http://www.w3.org/1999/xlink" fill="none" version="1.1" width="256" height="256" viewBox="0 0 256 256"><g><g><rect x="0" y="0" width="256" height="256" rx="80" fill="#000000" fill-opacity="1"/></g><g><g></g><g><g><path d="M167.67000038146972,168.52386740112303L95.09730038146972,59.66486740112305L50.60000038146973,59.66486740112305L138.0054003814697,196.08586740112304L189.65400038146973,196.08586740112304L189.65400038146973,172.49686740112304L167.67000038146972,168.52386740112303ZM181.17800038146973,179.57886740112303L162.61700038146972,176.22386740112304L90.56130038146972,68.14054740112304L66.09650038146972,68.14054740112304L142.64110038146973,187.60986740112304L181.17800038146973,187.60986740112304L181.17800038146973,179.57886740112303ZM50.60000038146973,158.21006740112304L50.60000038146973,196.08586740112304L59.075680381469724,190.19686740112306L98.27570038146973,162.96186740112304L86.32640038146972,143.68916740112303L81.85410038146972,136.47566740112305L74.88590038146972,141.32136740112304L50.60000038146973,158.21006740112304ZM79.35830038146972,148.53486740112305L59.075680381469724,162.63986740112304L59.075680381469724,179.87686740112304L86.83330038146973,160.59186740112307L79.35830038146972,148.53486740112305Z" fill-rule="evenodd" fill="#FFFFFF" fill-opacity="1"/></g><g><path d="M158.9296832977295,98.86486740112305L175.35108329772947,122.43786740112304L207.1350832977295,98.86486740112305L207.1350832977295,59.66486740112305L172.7030832977295,59.66486740112305L185.15108329772949,78.20536740112306L158.9296832977295,98.86486740112305ZM68.08108329772949,158.21006740112304L68.08108329772949,196.08586740112304L113.6378832977295,164.55086740112304L96.6864832977295,138.59456740112304L68.08108329772949,158.21006740112304ZM68.08108329772949,59.66486740112305L155.48648329772948,196.08586740112304L207.1350832977295,196.08586740112304L207.1350832977295,172.49686740112304L185.15108329772949,168.52386740112303L112.57838329772949,59.66486740112305L68.08108329772949,59.66486740112305Z" fill="#FFFFFF" fill-opacity="1"/></g></g></g></g></svg>